<?xml version="1.0" standalone="no"?>
<!DOCTYPE svg PUBLIC "-//W3C//DTD SVG 20010904//EN"
 "http://www.w3.org/TR/2001/REC-SVG-20010904/DTD/svg10.dtd">
<svg version="1.0" xmlns="http://www.w3.org/2000/svg"
 width="249.000000pt" height="195.000000pt" viewBox="0 0 249.000000 195.000000"
 preserveAspectRatio="xMidYMid meet">
<metadata>
Created by potrace 1.13, written by Peter Selinger 2001-2015
</metadata>
<g transform="translate(0.000000,195.000000) scale(0.100000,-0.100000)"
fill="#000000" stroke="none">
<path d="M1035 1851 c-44 -15 -100 -40 -125 -55 -97 -57 -174 -88 -205 -81
-86 17 -91 17 -121 -7 -54 -43 -119 -85 -189 -121 -116 -61 -320 -222 -356
-281 -39 -65 -12 -231 73 -431 61 -147 75 -172 130 -240 117 -142 129 -154
171 -154 68 -2 119 39 182 143 33 54 35 62 31 129 -2 40 -9 107 -16 149 -10
62 -10 81 0 93 23 27 41 16 66 -42 14 -32 30 -66 35 -76 6 -11 14 -65 19 -120
9 -118 14 -131 69 -214 44 -67 74 -136 85 -197 12 -61 73 -174 122 -223 24
-25 72 -59 107 -76 54 -26 72 -29 141 -28 136 3 277 60 369 149 84 83 98 126
108 337 7 161 9 175 42 264 20 51 51 117 70 145 19 29 47 75 61 104 29 57 58
73 87 46 24 -22 25 -100 3 -194 -29 -126 2 -261 80 -340 35 -37 79 -39 127 -7
51 34 172 190 218 282 39 75 42 88 52 209 14 153 9 173 -60 277 -54 82 -162
185 -286 271 -44 31 -95 75 -114 98 -32 40 -35 41 -75 35 -22 -4 -58 -16 -78
-26 -21 -11 -39 -19 -42 -19 -3 0 -29 21 -59 48 -90 78 -243 158 -334 172 -32
6 -114 10 -183 9 -110 0 -134 -3 -205 -28z"/>
</g>
</svg>
